<svg xmlns="http://www.w3.org/2000/svg" xmlns:xlink="http://www.w3.org/1999/xlink" width="256" zoomAndPan="magnify" viewBox="0 0 192 191.999996" height="256" preserveAspectRatio="xMidYMid meet" version="1.0"><path fill="#116466" d="M 36.375 60.375 L 36.375 79.125 C 36.375 93.75 45.375 109.5 62.25 109.5 C 78 109.5 87.75 94.5 87.75 80.25 L 87.75 60.375 Z M 36.375 60.375 " fill-opacity="1" fill-rule="evenodd"/><path fill="#116466" d="M 61.875 115.125 C 41.625 115.125 30.75 96.375 30.75 79.125 L 30.75 57.375 C 30.75 55.875 31.875 54.75 33.75 54.75 L 90.375 54.75 C 92.25 54.75 93.375 55.875 93.375 57.375 L 93.375 80.25 C 93.375 97.125 81.375 115.125 61.875 115.125 Z M 61.875 115.125 " fill-opacity="1" fill-rule="evenodd"/><path fill="#116466" d="M 113.625 60.375 L 10.5 60.375 C 8.625 60.375 7.5 58.875 7.5 57.375 L 7.5 47.25 C 7.5 40.125 13.5 34.5 20.25 34.5 L 103.5 34.5 C 110.625 34.5 116.25 40.125 116.25 47.25 L 116.25 57.375 C 116.625 58.875 115.5 60.375 113.625 60.375 Z M 113.625 60.375 " fill-opacity="1" fill-rule="evenodd"/><path fill="#116466" d="M 42.375 29.25 L 46.875 16.5 C 47.625 15.375 48.375 15 49.5 15 L 74.625 15 C 75.75 15 76.875 15.375 77.25 16.5 L 82.125 29.25 Z M 42.375 29.25 " fill-opacity="1" fill-rule="evenodd"/><path fill="#116466" d="M 125.25 177 L 102.375 177 L 103.125 129.375 C 113.625 133.5 121.875 141.75 123.75 151.5 L 127.875 174 C 127.875 174.75 127.875 175.5 127.125 176.25 C 126.75 177 126 177 125.25 177 Z M 96.75 177 L 28.125 177 L 28.875 138.75 C 31.5 142.125 35.25 144.75 39 146.625 C 46.125 149.625 54.375 151.125 61.875 151.125 C 69.75 151.125 78 149.625 85.125 146.625 C 90.75 144 95.625 139.875 97.875 133.875 Z M 22.5 177 L 2.625 177 C 1.875 177 1.125 177 0.75 176.25 C 0.375 175.5 0 174.75 0 174 L 4.125 151.5 C 6 142.125 13.5 133.875 23.625 129.375 Z M 22.5 177 " fill-opacity="1" fill-rule="evenodd"/><path fill="#116466" d="M 61.875 145.875 C 44.25 145.875 31.125 138.75 31.125 129.375 C 31.125 127.5 32.25 126.375 33.75 126.375 L 38.625 126.375 L 43.125 114.75 C 48.375 118.125 54.75 120.375 61.875 120.375 C 69 120.375 75.375 118.125 81 114.75 L 85.5 126.375 L 90.375 126.375 C 91.875 126.375 93.375 127.5 93.375 129.375 C 93.375 138.75 79.875 145.875 61.875 145.875 Z M 61.875 145.875 " fill-opacity="1" fill-rule="evenodd"/><path fill="#116466" d="M 147 78 C 141.375 78 135.75 75.75 131.625 72 C 126.75 66.75 124.5 59.25 126 52.125 C 126 51 127.125 50.25 127.875 49.875 C 135 48.375 142.5 50.625 148.125 55.875 C 153 60.75 155.25 68.25 153.75 75.375 C 153.75 76.5 152.625 77.25 151.875 77.625 C 150 78 148.5 78 147 78 Z M 147 78 " fill-opacity="1" fill-rule="evenodd"/><path fill="#116466" d="M 151.125 148.875 C 149.625 148.875 148.125 147.75 148.125 146.25 L 148.125 74.625 C 148.125 73.125 149.625 72 151.125 72 C 152.625 72 153.75 73.125 153.75 74.625 L 153.75 146.25 C 153.75 148.125 152.625 148.875 151.125 148.875 Z M 151.125 148.875 " fill-opacity="1" fill-rule="evenodd"/><path fill="#116466" d="M 170.625 90.375 C 166.875 90.375 163.5 89.25 160.125 87.75 C 159.375 87 158.625 85.875 158.625 85.125 C 159.375 77.625 163.5 70.875 169.875 67.5 C 176.25 64.125 184.125 64.125 190.5 67.5 C 191.625 68.25 192 69 192 70.125 C 191.625 77.25 187.125 84 180.75 87.75 C 177.75 89.25 174.375 90.375 170.625 90.375 Z M 170.625 90.375 " fill-opacity="1" fill-rule="evenodd"/><path fill="#116466" d="M 151.125 93.75 C 150.375 93.75 150 93.375 149.625 93.375 C 148.125 92.25 148.125 90.375 148.875 89.625 C 154.5 82.125 161.25 82.5 161.625 82.5 C 163.125 82.875 164.25 84 164.25 85.5 C 163.875 87 162.75 88.125 161.25 88.125 C 160.875 88.125 156.75 87.75 153 92.625 C 152.625 93.375 151.875 93.75 151.125 93.75 Z M 151.125 93.75 " fill-opacity="1" fill-rule="evenodd"/><path fill="#116466" d="M 135 108.75 C 131.25 108.75 127.875 107.625 124.5 106.125 C 118.125 102.375 114 96 113.625 88.5 C 113.625 87.375 114 86.625 114.75 85.875 C 121.125 82.5 129 82.5 135.75 85.875 C 142.125 89.625 146.25 96 147 103.5 C 147 104.25 146.25 105.375 145.5 106.125 C 142.125 107.625 138.75 108.75 135 108.75 Z M 135 108.75 " fill-opacity="1" fill-rule="evenodd"/><path fill="#116466" d="M 151.125 108.375 C 150.75 108.375 150 108.375 149.625 108 C 146.625 106.125 144.375 106.125 144.375 106.125 C 142.875 106.125 141.75 105 141.75 103.5 C 141.375 102 142.5 100.5 144 100.5 C 144.375 100.5 148.5 100.5 152.625 103.5 C 153.75 104.25 154.125 105.75 153.375 107.25 C 153 108 151.875 108.375 151.125 108.375 Z M 151.125 108.375 " fill-opacity="1" fill-rule="evenodd"/><path fill="#116466" d="M 166.125 126.75 C 162.375 126.75 159 125.625 155.625 124.125 C 154.875 123.75 154.5 122.625 154.5 121.5 C 154.875 114.375 159 107.625 165.375 104.25 C 172.125 100.5 179.625 100.5 186.375 104.25 C 187.125 104.625 187.875 105.75 187.5 106.5 C 187.125 114 183 120.75 176.625 124.125 C 173.25 125.625 169.5 126.75 166.125 126.75 Z M 166.125 126.75 " fill-opacity="1" fill-rule="evenodd"/><path fill="#116466" d="M 151.125 126 C 150 126 149.25 125.625 148.875 124.875 C 148.125 123.75 148.5 121.875 149.625 121.125 C 153.375 118.875 156.75 118.875 157.5 119.25 C 159 119.25 160.125 120.375 159.75 121.875 C 159.75 123.75 158.25 124.875 156.75 124.5 C 156.75 124.5 154.875 124.5 152.625 125.625 C 151.875 126 151.5 126 151.125 126 Z M 151.125 126 " fill-opacity="1" fill-rule="evenodd"/></svg>