<svg xmlns="http://www.w3.org/2000/svg" xmlns:xlink="http://www.w3.org/1999/xlink" width="256" zoomAndPan="magnify" viewBox="0 0 192 191.999996" height="256" preserveAspectRatio="xMidYMid meet" version="1.0"><defs><clipPath id="42bbde8266"><path d="M 7.558594 2 L 180 2 L 180 192 L 7.558594 192 Z M 7.558594 2 " clip-rule="nonzero"/></clipPath></defs><g clip-path="url(#42bbde8266)"><path fill="#116466" d="M 173.375 66.164062 C 173.953125 65.066406 174.472656 63.96875 174.960938 62.84375 C 183.988281 42.210938 178.832031 18.195312 162.210938 3.046875 C 161.480469 2.378906 160.472656 2.132812 159.527344 2.316406 C 158.550781 2.53125 157.757812 3.167969 157.363281 4.082031 L 120.671875 88.078125 L 75.015625 88.078125 L 75.015625 58.757812 C 76.144531 58.820312 77.515625 58.878906 79.074219 58.878906 C 87.246094 58.878906 100.175781 57.386719 108.625 48.945312 C 121.464844 36.113281 118.261719 12.859375 118.109375 11.886719 C 117.925781 10.542969 116.859375 9.507812 115.519531 9.296875 C 114.542969 9.144531 91.273438 5.941406 78.402344 18.773438 C 75.015625 22.15625 72.789062 26.238281 71.296875 30.445312 C 70.136719 28.222656 68.703125 26.085938 66.84375 24.230469 C 55.863281 13.257812 36.039062 16 35.183594 16.121094 C 33.84375 16.304688 32.804688 17.371094 32.59375 18.710938 C 32.472656 19.535156 29.726562 39.375 40.707031 50.347656 C 47.933594 57.570312 59.003906 58.847656 65.957031 58.847656 C 67.054688 58.847656 68.03125 58.820312 68.886719 58.757812 L 68.886719 88.105469 L 28.992188 88.105469 C 27.683594 88.105469 26.523438 88.929688 26.097656 90.179688 C 24.449219 94.996094 23.535156 100.023438 23.320312 105.144531 L 8.316406 130.835938 C 7.765625 131.777344 7.765625 132.9375 8.316406 133.882812 C 8.863281 134.828125 9.871094 135.40625 10.96875 135.40625 L 23.320312 135.40625 L 23.320312 158.75 C 23.320312 164.054688 27.652344 168.382812 32.957031 168.382812 L 43.113281 168.382812 L 43.113281 191.726562 L 49.214844 191.726562 L 49.214844 168.382812 L 57.144531 168.382812 L 57.144531 162.285156 L 32.957031 162.285156 C 30.976562 162.285156 29.421875 160.730469 29.421875 158.75 L 29.421875 132.359375 C 29.421875 130.683594 28.046875 129.308594 26.371094 129.308594 L 16.277344 129.308594 L 28.992188 107.519531 C 29.269531 107.0625 29.390625 106.574219 29.421875 106.058594 C 29.511719 102.003906 30.121094 98.042969 31.21875 94.203125 L 120.457031 94.203125 C 121.402344 97.371094 121.984375 100.664062 122.195312 103.984375 C 122.898438 114.46875 120.125 124.617188 114.207031 133.273438 C 108.382812 141.773438 104.445312 149.820312 102.191406 157.898438 C 97.15625 176.03125 98.042969 191.300781 98.101562 191.9375 L 104.203125 191.574219 C 104.203125 191.574219 103.347656 176.640625 108.078125 159.542969 C 110.148438 152.136719 113.808594 144.671875 119.238281 136.714844 C 125.917969 126.902344 129.058594 115.472656 128.265625 103.589844 C 128.082031 100.480469 127.566406 97.371094 126.800781 94.355469 C 146.136719 94.261719 164.46875 83.351562 173.375 66.195312 Z M 68.488281 47.085938 C 63.519531 42.210938 57.816406 38.125 51.472656 34.863281 C 54.886719 41.539062 59.15625 47.480469 64.339844 52.664062 C 58.457031 52.480469 50.28125 51.167969 45.066406 45.988281 C 38.203125 39.132812 38.144531 27 38.449219 21.914062 C 43.542969 21.609375 55.648438 21.636719 62.542969 28.527344 C 66.355469 32.335938 68.03125 37.699219 68.734375 42.636719 C 68.582031 44.191406 68.519531 45.714844 68.488281 47.085938 Z M 82.730469 23.070312 C 91.273438 14.539062 106.460938 14.660156 112.285156 15.085938 C 112.679688 20.90625 112.835938 36.082031 104.292969 44.617188 C 97.492188 51.414062 86.515625 52.695312 79.378906 52.753906 C 85.996094 46.386719 91.636719 39.132812 96.273438 31.023438 C 88.496094 35.503906 81.480469 40.867188 75.320312 47.148438 C 75.261719 45.652344 75.136719 44.070312 74.894531 42.390625 C 75.566406 35.902344 77.546875 28.25 82.730469 23.070312 Z M 127.261719 88.230469 L 161.175781 10.636719 C 173.402344 24.046875 176.757812 43.519531 169.378906 60.433594 C 168.953125 61.410156 168.492188 62.355469 167.976562 63.359375 C 160.199219 78.386719 144.21875 88.015625 127.289062 88.257812 Z M 127.261719 88.230469 " fill-opacity="1" fill-rule="nonzero"/></g><path fill="#116466" d="M 108.472656 60.679688 C 107.375 65.617188 106.460938 66.742188 102.496094 68.144531 C 102.496094 68.144531 102.496094 68.207031 102.496094 68.207031 C 106.460938 69.578125 107.375 70.734375 108.472656 75.671875 C 108.472656 75.703125 108.535156 75.703125 108.535156 75.671875 C 109.632812 70.734375 110.546875 69.609375 114.511719 68.207031 C 114.511719 68.207031 114.511719 68.144531 114.511719 68.144531 C 110.546875 66.773438 109.632812 65.617188 108.535156 60.679688 C 108.535156 60.648438 108.472656 60.648438 108.472656 60.679688 Z M 108.472656 60.679688 " fill-opacity="1" fill-rule="nonzero"/><path fill="#116466" d="M 29.175781 66.5 C 29.175781 66.5 29.238281 66.53125 29.238281 66.5 C 30.335938 61.5625 31.25 60.433594 35.214844 59.03125 C 35.214844 59.03125 35.214844 58.972656 35.214844 58.972656 C 31.25 57.601562 30.335938 56.441406 29.238281 51.503906 C 29.238281 51.472656 29.175781 51.472656 29.175781 51.503906 C 28.078125 56.441406 27.164062 57.570312 23.199219 58.972656 C 23.199219 58.972656 23.199219 59.03125 23.199219 59.03125 C 27.164062 60.402344 28.078125 61.5625 29.175781 66.5 Z M 29.175781 66.5 " fill-opacity="1" fill-rule="nonzero"/><path fill="#116466" d="M 65.957031 14.902344 C 67.054688 9.964844 67.972656 8.839844 71.9375 7.4375 C 71.9375 7.4375 71.9375 7.375 71.9375 7.375 C 67.972656 6.003906 67.054688 4.847656 65.957031 -0.0898438 C 65.957031 -0.121094 65.898438 -0.121094 65.898438 -0.0898438 C 64.800781 4.847656 63.882812 5.972656 59.917969 7.375 C 59.917969 7.375 59.917969 7.4375 59.917969 7.4375 C 63.882812 8.808594 64.800781 9.964844 65.898438 14.902344 C 65.898438 14.933594 65.957031 14.933594 65.957031 14.902344 Z M 65.957031 14.902344 " fill-opacity="1" fill-rule="nonzero"/></svg>