<svg xmlns="http://www.w3.org/2000/svg" xmlns:xlink="http://www.w3.org/1999/xlink" width="256" zoomAndPan="magnify" viewBox="0 0 192 191.999996" height="256" preserveAspectRatio="xMidYMid meet" version="1.0"><defs><clipPath id="4f4defac79"><path d="M 11 1 L 181.648438 1 L 181.648438 192 L 11 192 Z M 11 1 " clip-rule="nonzero"/></clipPath></defs><g clip-path="url(#4f4defac79)"><path fill="#116466" d="M 50.359375 28.316406 C 50.375 27.414062 50.433594 26.519531 50.539062 25.625 C 50.644531 24.730469 50.789062 23.84375 50.980469 22.964844 C 51.175781 22.082031 51.410156 21.214844 51.683594 20.359375 C 51.960938 19.503906 52.28125 18.660156 52.640625 17.835938 C 53 17.011719 53.398438 16.203125 53.839844 15.417969 C 54.277344 14.632812 54.753906 13.871094 55.269531 13.128906 C 55.785156 12.390625 56.332031 11.679688 56.917969 10.992188 C 57.503906 10.308594 58.121094 9.652344 58.769531 9.027344 C 59.417969 8.402344 60.09375 7.8125 60.800781 7.253906 C 61.511719 6.695312 62.242188 6.171875 63 5.683594 C 63.761719 5.199219 64.542969 4.75 65.34375 4.339844 C 66.148438 3.929688 66.96875 3.558594 67.808594 3.230469 C 68.644531 2.902344 69.5 2.613281 70.367188 2.367188 C 71.234375 2.121094 72.113281 1.921875 73 1.761719 C 73.886719 1.601562 74.78125 1.484375 75.679688 1.414062 C 76.578125 1.339844 77.476562 1.3125 78.378906 1.328125 C 79.28125 1.347656 80.179688 1.40625 81.074219 1.511719 C 81.972656 1.617188 82.859375 1.765625 83.742188 1.957031 C 84.621094 2.148438 85.492188 2.382812 86.351562 2.660156 C 87.207031 2.933594 88.050781 3.253906 88.875 3.613281 C 89.703125 3.972656 90.511719 4.371094 91.296875 4.8125 C 92.085938 5.25 92.847656 5.726562 93.589844 6.238281 C 94.332031 6.753906 95.042969 7.300781 95.730469 7.886719 C 96.417969 8.46875 97.074219 9.085938 97.699219 9.734375 C 98.324219 10.382812 98.917969 11.058594 99.476562 11.765625 C 100.035156 12.472656 100.558594 13.203125 101.046875 13.960938 C 101.53125 14.71875 101.980469 15.5 102.390625 16.300781 C 102.800781 17.101562 103.171875 17.921875 103.5 18.757812 C 103.832031 19.597656 104.117188 20.449219 104.363281 21.316406 C 104.609375 22.183594 104.8125 23.058594 104.972656 23.945312 C 105.132812 24.828125 105.246094 25.722656 105.316406 26.617188 C 105.390625 27.515625 105.417969 28.414062 105.398438 29.316406 C 105.367188 30.203125 105.289062 31.085938 105.167969 31.964844 C 105.046875 32.84375 104.882812 33.71875 104.679688 34.582031 C 104.472656 35.445312 104.226562 36.296875 103.9375 37.136719 C 103.648438 37.976562 103.320312 38.800781 102.953125 39.609375 C 102.585938 40.417969 102.179688 41.207031 101.734375 41.976562 C 101.289062 42.746094 100.808594 43.492188 100.292969 44.214844 C 99.773438 44.933594 99.222656 45.632812 98.640625 46.300781 C 98.054688 46.96875 97.4375 47.609375 96.792969 48.21875 C 96.144531 48.828125 95.46875 49.40625 94.769531 49.949219 C 94.066406 50.492188 93.335938 51.003906 92.585938 51.476562 C 91.832031 51.949219 91.058594 52.386719 90.265625 52.785156 C 89.46875 53.183594 88.660156 53.546875 87.828125 53.867188 C 87 54.1875 86.15625 54.464844 85.300781 54.703125 C 84.441406 54.945312 83.578125 55.140625 82.699219 55.296875 C 81.824219 55.449219 80.941406 55.5625 80.054688 55.632812 C 79.167969 55.703125 78.28125 55.730469 77.390625 55.714844 C 76.503906 55.699219 75.617188 55.636719 74.734375 55.535156 C 73.847656 55.433594 72.972656 55.289062 72.101562 55.101562 C 71.234375 54.917969 70.375 54.6875 69.527344 54.417969 C 68.679688 54.148438 67.847656 53.839844 67.03125 53.488281 C 66.210938 53.136719 65.414062 52.75 64.632812 52.320312 C 63.855469 51.894531 63.097656 51.429688 62.363281 50.929688 C 61.628906 50.425781 60.921875 49.890625 60.238281 49.324219 C 59.554688 48.753906 58.902344 48.152344 58.277344 47.519531 C 57.652344 46.886719 57.0625 46.226562 56.5 45.535156 C 55.941406 44.84375 55.417969 44.128906 54.925781 43.390625 C 54.4375 42.648438 53.984375 41.886719 53.566406 41.101562 C 53.148438 40.316406 52.773438 39.511719 52.433594 38.691406 C 52.09375 37.871094 51.796875 37.035156 51.539062 36.1875 C 51.285156 35.335938 51.066406 34.476562 50.894531 33.605469 C 50.71875 32.734375 50.589844 31.855469 50.5 30.972656 C 50.414062 30.089844 50.367188 29.203125 50.363281 28.316406 Z M 179.207031 63.625 C 178.800781 62.992188 178.265625 62.492188 177.601562 62.132812 C 176.9375 61.773438 176.230469 61.59375 175.476562 61.597656 L 149.839844 61.597656 C 149.539062 61.597656 149.246094 61.625 148.953125 61.683594 C 148.660156 61.742188 148.375 61.828125 148.097656 61.941406 C 147.820312 62.058594 147.558594 62.199219 147.3125 62.363281 C 147.0625 62.527344 146.832031 62.71875 146.621094 62.929688 C 146.410156 63.140625 146.222656 63.367188 146.054688 63.617188 C 145.890625 63.863281 145.75 64.125 145.636719 64.402344 C 145.519531 64.675781 145.433594 64.960938 145.375 65.253906 C 145.316406 65.546875 145.289062 65.839844 145.289062 66.140625 C 145.289062 66.4375 145.316406 66.734375 145.375 67.027344 C 145.433594 67.320312 145.519531 67.601562 145.636719 67.878906 C 145.75 68.152344 145.890625 68.414062 146.054688 68.664062 C 146.222656 68.910156 146.410156 69.140625 146.621094 69.351562 C 146.832031 69.5625 147.0625 69.75 147.3125 69.917969 C 147.558594 70.082031 147.820312 70.222656 148.097656 70.335938 C 148.375 70.449219 148.660156 70.539062 148.953125 70.59375 C 149.246094 70.652344 149.539062 70.683594 149.839844 70.683594 L 167.132812 70.683594 C 152.660156 85.128906 138.210938 99.5625 123.777344 113.988281 L 123.777344 101.328125 L 123.71875 101.390625 L 123.71875 92.273438 C 123.710938 91.386719 123.660156 90.496094 123.566406 89.613281 C 123.472656 88.726562 123.332031 87.847656 123.152344 86.976562 C 122.976562 86.105469 122.753906 85.242188 122.488281 84.390625 C 122.226562 83.542969 121.921875 82.707031 121.578125 81.886719 C 121.234375 81.0625 120.851562 80.261719 120.429688 79.476562 C 120.003906 78.695312 119.546875 77.933594 119.050781 77.191406 C 118.554688 76.453125 118.023438 75.738281 117.457031 75.050781 C 116.890625 74.363281 116.292969 73.703125 115.664062 73.074219 C 115.03125 72.445312 114.375 71.84375 113.683594 71.277344 C 112.996094 70.710938 112.285156 70.179688 111.542969 69.683594 C 110.804688 69.1875 110.042969 68.726562 109.257812 68.300781 C 108.472656 67.878906 107.671875 67.496094 106.847656 67.148438 C 106.027344 66.804688 105.191406 66.496094 104.339844 66.234375 C 103.488281 65.96875 102.625 65.746094 101.75 65.5625 C 100.878906 65.382812 100 65.246094 99.113281 65.148438 C 98.226562 65.050781 97.335938 65 96.445312 64.988281 C 84.007812 64.960938 71.566406 64.96875 59.128906 65.019531 C 57.570312 65.03125 56.027344 65.179688 54.496094 65.457031 C 52.964844 65.734375 51.46875 66.140625 50.003906 66.675781 C 48.542969 67.210938 47.136719 67.867188 45.789062 68.644531 C 44.441406 69.417969 43.167969 70.304688 41.96875 71.300781 C 40.773438 72.292969 39.671875 73.382812 38.660156 74.566406 C 37.652344 75.75 36.753906 77.011719 35.960938 78.347656 C 35.167969 79.6875 34.496094 81.082031 33.945312 82.535156 C 33.394531 83.988281 32.96875 85.480469 32.675781 87.003906 C 32.1875 91.230469 31.972656 95.472656 32.035156 99.726562 C 32.007812 100.179688 32.035156 100.664062 32.035156 101.300781 C 31.960938 101.253906 31.878906 101.210938 31.792969 101.179688 L 31.792969 116.957031 C 31.941406 117.726562 32.011719 118.503906 32.007812 119.289062 C 32.035156 121.953125 32.035156 145.90625 32.035156 155.71875 L 31.792969 155.71875 L 31.792969 164.410156 L 12.378906 183.792969 C 12.167969 184.003906 11.980469 184.234375 11.8125 184.484375 C 11.648438 184.734375 11.507812 184.996094 11.394531 185.273438 C 11.28125 185.546875 11.195312 185.832031 11.136719 186.125 C 11.082031 186.417969 11.050781 186.714844 11.050781 187.011719 C 11.054688 187.3125 11.082031 187.609375 11.144531 187.898438 C 11.203125 188.191406 11.289062 188.476562 11.402344 188.753906 C 11.519531 189.027344 11.660156 189.289062 11.828125 189.539062 C 11.992188 189.785156 12.183594 190.015625 12.394531 190.226562 C 12.609375 190.4375 12.839844 190.625 13.085938 190.789062 C 13.335938 190.957031 13.597656 191.09375 13.875 191.207031 C 14.152344 191.324219 14.4375 191.40625 14.730469 191.464844 C 15.023438 191.523438 15.320312 191.550781 15.621094 191.550781 C 15.917969 191.550781 16.214844 191.519531 16.507812 191.460938 C 16.800781 191.402344 17.085938 191.316406 17.363281 191.203125 C 17.640625 191.085938 17.902344 190.945312 18.152344 190.78125 C 18.398438 190.613281 18.628906 190.425781 18.839844 190.214844 L 44.289062 164.804688 L 78.453125 130.707031 L 93.988281 146.210938 C 94.375 146.59375 94.816406 146.886719 95.320312 147.089844 C 95.480469 147.398438 95.675781 147.683594 95.902344 147.949219 C 96.132812 148.210938 96.386719 148.445312 96.667969 148.648438 C 96.953125 148.851562 97.253906 149.019531 97.578125 149.148438 C 97.902344 149.28125 98.234375 149.375 98.578125 149.429688 C 98.921875 149.480469 99.269531 149.492188 99.617188 149.464844 C 99.964844 149.4375 100.304688 149.367188 100.632812 149.257812 C 100.964844 149.152344 101.28125 149.003906 101.578125 148.824219 C 101.875 148.640625 102.144531 148.425781 102.390625 148.179688 L 114.496094 136.097656 C 117.558594 133.007812 120.632812 129.9375 123.71875 126.890625 C 139.898438 110.71875 156.078125 94.566406 172.257812 78.433594 L 172.257812 95.695312 C 172.257812 95.996094 172.289062 96.289062 172.347656 96.582031 C 172.40625 96.875 172.492188 97.160156 172.605469 97.433594 C 172.71875 97.710938 172.859375 97.972656 173.027344 98.222656 C 173.191406 98.46875 173.378906 98.699219 173.59375 98.910156 C 173.804688 99.121094 174.03125 99.308594 174.28125 99.472656 C 174.53125 99.640625 174.792969 99.78125 175.070312 99.894531 C 175.34375 100.007812 175.628906 100.09375 175.921875 100.152344 C 176.214844 100.210938 176.511719 100.238281 176.808594 100.238281 C 177.109375 100.238281 177.40625 100.210938 177.699219 100.152344 C 177.992188 100.09375 178.273438 100.007812 178.550781 99.894531 C 178.828125 99.78125 179.089844 99.640625 179.339844 99.472656 C 179.585938 99.308594 179.816406 99.121094 180.027344 98.910156 C 180.238281 98.699219 180.425781 98.46875 180.59375 98.222656 C 180.757812 97.972656 180.898438 97.710938 181.015625 97.433594 C 181.128906 97.160156 181.214844 96.875 181.273438 96.582031 C 181.332031 96.289062 181.359375 95.996094 181.359375 95.695312 L 181.359375 67.472656 C 181.34375 66.691406 181.144531 65.960938 180.765625 65.28125 C 180.382812 64.601562 179.863281 64.050781 179.207031 63.625 Z M 179.207031 63.625 " fill-opacity="1" fill-rule="nonzero"/></g></svg>